<svg xmlns="http://www.w3.org/2000/svg" xmlns:xlink="http://www.w3.org/1999/xlink" width="485" height="342" viewBox="0 0 485 342">
  <defs>
    <clipPath id="clip-path">
      <rect id="Rectangle_6" data-name="Rectangle 6" width="485" height="290" transform="translate(-0.251 0.071)" fill="rgba(3,3,3,0.47)" stroke="#fff" stroke-width="1"/>
    </clipPath>
  </defs>
  <g id="Group_5" data-name="Group 5" transform="translate(636 495)">
    <g id="Mask_Group_2" data-name="Mask Group 2" transform="translate(-151.251 -204.929) rotate(180)" clip-path="url(#clip-path)">
      <g id="Group_1" data-name="Group 1" transform="translate(59.828 -14.868)">
        <g id="Path_1" data-name="Path 1">
          <path d="M 184.7117919921875 207.0418853759766 C 172.2144317626953 207.0418853759766 159.7250213623047 205.7258911132813 147.5905151367188 203.1304321289063 C 135.7644348144531 200.6009826660156 124.1317901611328 196.8265686035156 113.0157928466797 191.9121551513672 C 102.1011123657227 187.0867004394531 91.57374572753906 181.1140289306641 81.72611236572266 174.1600189208984 C 71.97147369384766 167.2717132568359 62.79856491088867 159.36083984375 54.46210861206055 150.6472015380859 C 46.12533569335938 141.9331207275391 38.55647277832031 132.3444366455078 31.96579170227051 122.1475219726563 C 25.31174659729004 111.8524780273438 19.59656524658203 100.8465728759766 14.97906494140625 89.43556976318359 C 10.27611064910889 77.81330108642578 6.66411018371582 65.65074920654297 4.243382930755615 53.28570556640625 C 1.75947380065918 40.59779739379883 0.5000192523002625 27.53875160217285 0.5000192523002625 14.47134304046631 C 0.5000192523002625 9.497116088867188 0.9109737873077393 6.001570224761963 1.756337404251099 3.784888505935669 C 2.686791896820068 1.345070362091064 3.933837413787842 1.062933921813965 4.790928363800049 1.062933921813965 C 7.269973754882813 1.062933921813965 10.83192825317383 3.884888410568237 14.60306453704834 6.872570514678955 C 19.44838333129883 10.71134281158447 24.94024658203125 15.06225204467773 30.06001853942871 15.06279754638672 C 30.06031608581543 15.06279754638672 30.06064224243164 15.06279754638672 30.06093788146973 15.06279754638672 C 30.5018196105957 15.06279754638672 30.9395751953125 15.03011798858643 31.36220169067383 14.96561622619629 C 40.63683700561523 13.5492525100708 52.56301879882813 12.88961601257324 68.8946533203125 12.88961601257324 C 81.98665618896484 12.88961601257324 96.57247161865234 13.28779792785645 113.46142578125 13.74888896942139 C 134.4491119384766 14.32188892364502 158.237060546875 14.97134304046631 184.7117919921875 14.97134304046631 C 210.2288818359375 14.97134304046631 234.8518829345703 14.53516101837158 256.5763244628906 14.15029716491699 C 274.7182922363281 13.82888889312744 291.8540649414063 13.52534294128418 306.6427001953125 13.52534294128418 C 324.7166137695313 13.52534294128418 337.5725708007813 13.98397922515869 347.1011047363281 14.96870708465576 C 347.400390625 14.9995698928833 347.704345703125 15.01525211334229 348.0046997070313 15.01525211334229 C 353.7991027832031 15.01525211334229 358.5892944335938 9.231524467468262 362.0869140625 5.008388519287109 C 364.0071411132813 2.689934015274048 365.8208923339844 0.5000248551368713 366.8612976074219 0.5000248551368713 C 367.5995788574219 0.5000248551368713 368.0404663085938 2.000479459762573 368.2803344726563 3.259206771850586 C 368.7131958007813 5.53061580657959 368.9236145019531 9.198161125183105 368.9236145019531 14.47134304046631 C 368.9236145019531 27.53875160217285 367.6641540527344 40.59779739379883 365.1802368164063 53.28570556640625 C 362.759521484375 65.65074920654297 359.1475219726563 77.81330108642578 354.4445495605469 89.43556976318359 C 349.8270568847656 100.8465728759766 344.1118774414063 111.8524780273438 337.4578247070313 122.1475219726563 C 330.8671569824219 132.3444366455078 323.2982788085938 141.9331207275391 314.9614868164063 150.6472015380859 C 306.6250610351563 159.36083984375 297.4521484375 167.2717132568359 287.697509765625 174.1600189208984 C 277.8498840332031 181.1140289306641 267.322509765625 187.0867004394531 256.4078063964844 191.9121551513672 C 245.2917938232422 196.8265686035156 233.6591949462891 200.6009826660156 221.8331146240234 203.1304321289063 C 209.6985626220703 205.7258911132813 197.2091522216797 207.0418853759766 184.7117919921875 207.0418853759766 Z" stroke="none"/>
          <path d="M 366.8616943359375 1.000030517578125 C 366.7564392089844 1.000076293945313 366.3333740234375 1.078384399414063 365.3113403320313 2.084121704101563 C 364.4861450195313 2.896163940429688 363.5081481933594 4.076980590820313 362.4727478027344 5.327072143554688 C 358.9116516113281 9.626708984375 354.0345764160156 15.5152587890625 348.0046691894531 15.5152587890625 C 347.6871948242188 15.5152587890625 347.365966796875 15.49870300292969 347.0497131347656 15.46601867675781 C 337.5376892089844 14.4830322265625 324.6980590820313 14.02525329589844 306.6427001953125 14.02534484863281 C 291.8597412109375 14.02543640136719 274.727783203125 14.32888793945313 256.5899658203125 14.65020751953125 C 234.862060546875 15.03511047363281 210.235107421875 15.47134399414063 184.7117919921875 15.47134399414063 C 158.2302398681641 15.47134399414063 134.4387054443359 14.82179260253906 113.4477844238281 14.24874877929688 C 96.56246948242188 13.78775024414063 81.97979736328125 13.38961791992188 68.89462280273438 13.38961791992188 C 52.58871459960938 13.38961791992188 40.6865234375 14.0474853515625 31.4376220703125 15.45988464355469 C 30.99032592773438 15.52816772460938 30.52682495117188 15.56280517578125 30.06005859375 15.56280517578125 C 24.76632690429688 15.56280517578125 19.2021484375 11.15420532226563 14.29296875 7.264617919921875 C 10.59188842773438 4.332199096679688 7.0960693359375 1.56243896484375 4.791107177734375 1.56292724609375 C 4.081787109375 1.563064575195313 3.04388427734375 1.81207275390625 2.223480224609375 3.963302612304688 C 1.41162109375 6.09197998046875 0.999969482421875 9.627395629882813 0.999969482421875 14.47134399414063 C 0.999969482421875 27.50657653808594 2.25628662109375 40.53329467773438 4.7340087890625 53.18966674804688 C 7.14862060546875 65.52347564697266 10.75146484375 77.65525054931641 15.4425048828125 89.24802398681641 C 20.04818725585938 100.6298446655273 25.74874877929688 111.6075210571289 32.38571166992188 121.8760681152344 C 38.95925903320313 132.0465698242188 46.50839233398438 141.6102600097656 54.82339477539063 150.3015289306641 C 63.13766479492188 158.9920196533203 72.28607177734375 166.8818054199219 82.0145263671875 173.7516174316406 C 91.83514404296875 180.6865234375 102.3335266113281 186.6427459716797 113.2179870605469 191.4548492431641 C 124.3027038574219 196.3554382324219 135.9024810791016 200.1191558837891 147.695068359375 202.6414794921875 C 159.7952880859375 205.2296142578125 172.24951171875 206.5418853759766 184.7117919921875 206.5418853759766 C 197.174072265625 206.5418853759766 209.6282958984375 205.2296142578125 221.728515625 202.6414794921875 C 233.5211029052734 200.1191558837891 245.1208801269531 196.3554382324219 256.2056274414063 191.4548492431641 C 267.0900573730469 186.6427459716797 277.5884399414063 180.6865234375 287.4090576171875 173.7516174316406 C 297.1375122070313 166.8818054199219 306.2859191894531 158.9920196533203 314.6001586914063 150.3015289306641 C 322.9151611328125 141.6102600097656 330.4642944335938 132.0465698242188 337.037841796875 121.8760681152344 C 343.6748352050781 111.6075210571289 349.3753356933594 100.6298446655273 353.9810180664063 89.24802398681641 C 358.6720581054688 77.65525054931641 362.2749328613281 65.52347564697266 364.6895141601563 53.18966674804688 C 367.167236328125 40.53329467773438 368.4235534667969 27.50657653808594 368.4235534667969 14.47134399414063 C 368.4235534667969 9.22979736328125 368.216064453125 5.592803955078125 367.7891540527344 3.352523803710938 C 367.5578002929688 2.138290405273438 367.2986145019531 1.5474853515625 367.1219787597656 1.265609741210938 C 367.045166015625 1.14306640625 366.9309387207031 0.9999847412109375 366.8617553710938 1.000030517578125 L 366.8616943359375 1.000030517578125 M 366.8612670898438 1.52587890625e-05 C 368.5387573242188 -0.0007781982421875 369.4235534667969 3.617874145507813 369.4235534667969 14.47134399414063 C 369.4235534667969 121.1012496948242 286.7252807617188 207.5418853759766 184.7117919921875 207.5418853759766 C 82.69830322265625 207.5418853759766 -3.0517578125e-05 121.1012496948242 -3.0517578125e-05 14.47134399414063 C -3.0517578125e-05 4.043548583984375 1.8406982421875 0.5635833740234375 4.7908935546875 0.56292724609375 C 10.7091064453125 0.5615997314453125 21.09552001953125 14.56282043457031 30.06005859375 14.56282043457031 C 30.47244262695313 14.56282043457031 30.88088989257813 14.53327941894531 31.28671264648438 14.47134399414063 C 41.50994873046875 12.91014099121094 54.06655883789063 12.38960266113281 68.89462280273438 12.38960266113281 C 98.55349731445313 12.38960266113281 137.3080444335938 14.47134399414063 184.7117919921875 14.47134399414063 C 231.498779296875 14.47134399414063 274.1094665527344 13.0255126953125 306.6427001953125 13.02534484863281 C 322.9122924804688 13.02525329589844 336.6571044921875 13.38670349121094 347.1525268554688 14.47134399414063 C 347.4386596679688 14.50088500976563 347.7232971191406 14.51524353027344 348.0046691894531 14.51524353027344 C 356.9673156738281 14.51524353027344 363.502197265625 0.0016021728515625 366.8612670898438 1.52587890625e-05 Z" stroke="none" fill="#707070"/>
        </g>
      </g>
    </g>
    <g id="Group_3" data-name="Group 3" transform="translate(-502.645 -330.497)">
      <g id="Rectangle_10" data-name="Rectangle 10" transform="translate(35.522 13.653) rotate(-37)" fill="#fff" stroke="#707070" stroke-width="1">
        <rect width="22.55" height="100.725" stroke="none"/>
        <rect x="0.5" y="0.5" width="21.55" height="99.725" fill="none"/>
      </g>
      <g id="Rectangle_7" data-name="Rectangle 7" transform="translate(-0.355 0.497)" fill="#fff" stroke="#707070" stroke-width="1">
        <rect width="23" height="66" stroke="none"/>
        <rect x="0.5" y="0.5" width="22" height="65" fill="none"/>
      </g>
      <g id="Ellipse_1" data-name="Ellipse 1" transform="translate(-0.355 73.497)" fill="#fff" stroke="#707070" stroke-width="1">
        <ellipse cx="11.5" cy="10.5" rx="11.5" ry="10.5" stroke="none"/>
        <ellipse cx="11.5" cy="10.5" rx="11" ry="10" fill="none"/>
      </g>
      <g id="Rectangle_8" data-name="Rectangle 8" transform="translate(31.645 0.497)" fill="#fff" stroke="#707070" stroke-width="1">
        <rect width="23" height="94" stroke="none"/>
        <rect x="0.5" y="0.5" width="22" height="93" fill="none"/>
      </g>
      <g id="Rectangle_9" data-name="Rectangle 9" transform="translate(92.645 0.497)" fill="#fff" stroke="#707070" stroke-width="1">
        <rect width="22" height="94" stroke="none"/>
        <rect x="0.5" y="0.5" width="21" height="93" fill="none"/>
      </g>
    </g>
    <text id="D_NE_N" data-name="D!NE !N" transform="translate(-322 -193)" font-size="30" font-family="SegoeUI-Bold, Segoe UI" font-weight="700"><tspan x="0" y="32">D!NE !N</tspan></text>
    <line id="Line_1" data-name="Line 1" x2="228.747" transform="translate(-439.862 -181.081)" fill="none" stroke="#000" stroke-width="3"/>
    <ellipse id="Ellipse_2" data-name="Ellipse 2" cx="19.5" cy="19" rx="19.5" ry="19" transform="translate(-413 -417)"/>
    <line id="Line_2" data-name="Line 2" x2="280.337" transform="translate(-491.451 -192.762)" fill="none" stroke="#000" stroke-width="3"/>
  </g>
</svg>
